REM DIRINDEX 1\2\6,1\2\7,1\2\8,1\3\9,1\3\10,1\3\11,1\4\12,1\4\13,1\4\14,1\5\15,1\5\16,1\5\17,1\5\18
REM DIRNAME folder01,folder02,folder03,folder04,folder05,folder06,folder07,folder08,folder09,folder10,folder11,folder12,folder13,folder14,folder15,folder16,folder17,folder18
TITLE ""
FILE "" MP3
  TRACK 01 AUDIO
    TITLE "16:cjc019_4745"
    INDEX 01 00:00:00
  TRACK 02 AUDIO
    TITLE "0:"
    INDEX 01 00:00:66
  TRACK 03 AUDIO
    TITLE "18:cjc019_4746"
    INDEX 01 00:01:46
  TRACK 04 AUDIO
    TITLE "0:"
    INDEX 01 00:06:43
  TRACK 05 AUDIO
    TITLE "17:cjc019_4747"
    INDEX 01 00:07:13
  TRACK 06 AUDIO
    TITLE "0:"
    INDEX 01 00:08:28
  TRACK 07 AUDIO
    TITLE "16:cjc019_4748"
    INDEX 01 00:10:06
  TRACK 08 AUDIO
    TITLE "0:"
    INDEX 01 00:11:01
  TRACK 09 AUDIO
    TITLE "18:cjc019_4749"
    INDEX 01 00:11:56
  TRACK 10 AUDIO
    TITLE "0:"
    INDEX 01 00:13:41
  TRACK 11 AUDIO
    TITLE "17:cjc019_4750"
    INDEX 01 00:14:11
  TRACK 12 AUDIO
    TITLE "0:"
    INDEX 01 00:15:03
  TRACK 13 AUDIO
    TITLE "16:cjc019_4751"
    INDEX 01 00:16:67
  TRACK 14 AUDIO
    TITLE "0:"
    INDEX 01 00:17:72
  TRACK 15 AUDIO
    TITLE "18:cjc019_4752"
    INDEX 01 00:18:50
  TRACK 16 AUDIO
    TITLE "0:"
    INDEX 01 00:20:00
  TRACK 17 AUDIO
    TITLE "17:cjc019_4753"
    INDEX 01 00:20:49
  TRACK 18 AUDIO
    TITLE "0:"
    INDEX 01 00:21:58
  TRACK 19 AUDIO
    TITLE "16:cjc019_4754"
    INDEX 01 00:23:36
  TRACK 20 AUDIO
    TITLE "0:"
    INDEX 01 00:24:57
  TRACK 21 AUDIO
    TITLE "18:cjc019_4755"
    INDEX 01 00:25:37
  TRACK 22 AUDIO
    TITLE "0:"
    INDEX 01 00:28:51
  TRACK 23 AUDIO
    TITLE "17:cjc019_4756"
    INDEX 01 00:29:29
  TRACK 24 AUDIO
    TITLE "0:"
    INDEX 01 00:30:50
  TRACK 25 AUDIO
    TITLE "16:cjc019_4757"
    INDEX 01 00:32:29
  TRACK 26 AUDIO
    TITLE "0:"
    INDEX 01 00:33:66
  TRACK 27 AUDIO
    TITLE "18:cjc019_4758"
    INDEX 01 00:34:43
  TRACK 28 AUDIO
    TITLE "0:"
    INDEX 01 00:36:27
  TRACK 29 AUDIO
    TITLE "17:cjc019_4759"
    INDEX 01 00:37:05
  TRACK 30 AUDIO
    TITLE "0:"
    INDEX 01 00:38:43
  TRACK 31 AUDIO
    TITLE "16:cjc019_4760"
    INDEX 01 00:40:21
  TRACK 32 AUDIO
    TITLE "0:"
    INDEX 01 00:41:45
  TRACK 33 AUDIO
    TITLE "18:cjc019_4761"
    INDEX 01 00:42:25
  TRACK 34 AUDIO
    TITLE "0:"
    INDEX 01 00:43:72
  TRACK 35 AUDIO
    TITLE "17:cjc019_4762"
    INDEX 01 00:44:44
  TRACK 36 AUDIO
    TITLE "0:"
    INDEX 01 00:45:69
  TRACK 37 AUDIO
    TITLE "16:cjc019_4763"
    INDEX 01 00:47:48
  TRACK 38 AUDIO
    TITLE "0:"
    INDEX 01 00:48:51
  TRACK 39 AUDIO
    TITLE "18:cjc019_4764"
    INDEX 01 00:49:33
  TRACK 40 AUDIO
    TITLE "0:"
    INDEX 01 00:52:53
  TRACK 41 AUDIO
    TITLE "17:cjc019_4765"
    INDEX 01 00:53:33
  TRACK 42 AUDIO
    TITLE "0:"
    INDEX 01 00:54:38
  TRACK 43 AUDIO
    TITLE "16:cjc019_4766"
    INDEX 01 00:56:20
  TRACK 44 AUDIO
    TITLE "0:"
    INDEX 01 00:57:52
  TRACK 45 AUDIO
    TITLE "18:cjc019_4767"
    INDEX 01 00:58:28
  TRACK 46 AUDIO
    TITLE "0:"
    INDEX 01 01:01:74
  TRACK 47 AUDIO
    TITLE "17:cjc019_4768"
    INDEX 01 01:02:52
  TRACK 48 AUDIO
    TITLE "0:"
    INDEX 01 01:04:11
  TRACK 49 AUDIO
    TITLE "16:cjc019_4769"
    INDEX 01 01:05:66
  TRACK 50 AUDIO
    TITLE "0:"
    INDEX 01 01:07:12
  TRACK 51 AUDIO
    TITLE "18:cjc019_4770"
    INDEX 01 01:07:68
  TRACK 52 AUDIO
    TITLE "0:"
    INDEX 01 01:09:42
  TRACK 53 AUDIO
    TITLE "17:cjc019_4771"
    INDEX 01 01:10:12
  TRACK 54 AUDIO
    TITLE "0:"
    INDEX 01 01:11:39
  TRACK 55 AUDIO
    TITLE "16:cjc019_4772"
    INDEX 01 01:13:18
  TRACK 56 AUDIO
    TITLE "0:"
    INDEX 01 01:14:35
  TRACK 57 AUDIO
    TITLE "18:cjc019_4773"
    INDEX 01 01:15:13
  TRACK 58 AUDIO
    TITLE "0:"
    INDEX 01 01:16:44
  TRACK 59 AUDIO
    TITLE "17:cjc019_4774"
    INDEX 01 01:17:20
  TRACK 60 AUDIO
    TITLE "0:"
    INDEX 01 01:18:39
  TRACK 61 AUDIO
    TITLE "16:cjc019_4775"
    INDEX 01 01:20:20
  TRACK 62 AUDIO
    TITLE "0:"
    INDEX 01 01:21:23
  TRACK 63 AUDIO
    TITLE "18:cjc019_4776"
    INDEX 01 01:22:05
  TRACK 64 AUDIO
    TITLE "0:"
    INDEX 01 01:23:48
  TRACK 65 AUDIO
    TITLE "17:cjc019_4777"
    INDEX 01 01:24:22
  TRACK 66 AUDIO
    TITLE "0:"
    INDEX 01 01:25:23
  TRACK 67 AUDIO
    TITLE "16:cjc019_4778"
    INDEX 01 01:27:06
  TRACK 68 AUDIO
    TITLE "0:"
    INDEX 01 01:28:29
  TRACK 69 AUDIO
    TITLE "18:cjc019_4779"
    INDEX 01 01:29:01
  TRACK 70 AUDIO
    TITLE "0:"
    INDEX 01 01:31:63
  TRACK 71 AUDIO
    TITLE "17:cjc019_4780"
    INDEX 01 01:32:39
  TRACK 72 AUDIO
    TITLE "0:"
    INDEX 01 01:33:60
  TRACK 73 AUDIO
    TITLE "16:cjc019_4781"
    INDEX 01 01:35:41
  TRACK 74 AUDIO
    TITLE "0:"
    INDEX 01 01:36:60
  TRACK 75 AUDIO
    TITLE "18:cjc019_4782"
    INDEX 01 01:37:36
  TRACK 76 AUDIO
    TITLE "0:"
    INDEX 01 01:40:66
  TRACK 77 AUDIO
    TITLE "17:cjc019_4783"
    INDEX 01 01:41:40
  TRACK 78 AUDIO
    TITLE "0:"
    INDEX 01 01:42:63
  TRACK 79 AUDIO
    TITLE "16:cjc019_4784"
    INDEX 01 01:44:42
  TRACK 80 AUDIO
    TITLE "0:"
    INDEX 01 01:45:55
  TRACK 81 AUDIO
    TITLE "18:cjc019_4785"
    INDEX 01 01:46:29
  TRACK 82 AUDIO
    TITLE "0:"
    INDEX 01 01:47:66
  TRACK 83 AUDIO
    TITLE "17:cjc019_4786"
    INDEX 01 01:48:38
  TRACK 84 AUDIO
    TITLE "0:"
    INDEX 01 01:49:53
  TRACK 85 AUDIO
    TITLE "16:cjc019_4787"
    INDEX 01 01:51:36
  TRACK 86 AUDIO
    TITLE "0:"
    INDEX 01 01:52:53
  TRACK 87 AUDIO
    TITLE "18:cjc019_4788"
    INDEX 01 01:53:27
  TRACK 88 AUDIO
    TITLE "0:"
    INDEX 01 01:56:24
  TRACK 89 AUDIO
    TITLE "17:cjc019_4789"
    INDEX 01 01:56:73
  TRACK 90 AUDIO
    TITLE "0:"
    INDEX 01 01:58:11
  TRACK 91 AUDIO
    TITLE "16:cjc019_4790"
    INDEX 01 01:59:67
  TRACK 92 AUDIO
    TITLE "0:"
    INDEX 01 02:01:05
  TRACK 93 AUDIO
    TITLE "18:cjc019_4791"
    INDEX 01 02:01:56
  TRACK 94 AUDIO
    TITLE "0:"
    INDEX 01 02:06:48
  TRACK 95 AUDIO
    TITLE "17:cjc019_4792"
    INDEX 01 02:07:24
  TRACK 96 AUDIO
    TITLE "0:"
    INDEX 01 02:08:33
  TRACK 97 AUDIO
    TITLE "16:cjc019_4793"
    INDEX 01 02:10:14
  TRACK 98 AUDIO
    TITLE "0:"
    INDEX 01 02:11:39
  TRACK 99 AUDIO
    TITLE "18:cjc019_4794"
    INDEX 01 02:12:17
  TRACK 100 AUDIO
    TITLE "0:"
    INDEX 01 02:15:39
  TRACK 101 AUDIO
    TITLE "17:cjc019_4795"
    INDEX 01 02:16:13
  TRACK 102 AUDIO
    TITLE "0:"
    INDEX 01 02:17:44
  TRACK 103 AUDIO
    TITLE "16:cjc019_4796"
    INDEX 01 02:19:21
  TRACK 104 AUDIO
    TITLE "0:"
    INDEX 01 02:20:22
  TRACK 105 AUDIO
    TITLE "18:cjc019_4797"
    INDEX 01 02:21:02
  TRACK 106 AUDIO
    TITLE "0:"
    INDEX 01 02:25:41
  TRACK 107 AUDIO
    TITLE "17:cjc019_4798"
    INDEX 01 02:26:19
  TRACK 108 AUDIO
    TITLE "0:"
    INDEX 01 02:27:28
